PathFileType   4   (X/Y/Z)
DataRate	CameraRate	NumFrames	NumMarkers	Units	OrigDataRate	OrigDataStartFrame	OrigNumFrames
120.0	120.0	12	37	mm	120.0	28	110
Frame#	Time	midhip	hip_r	hip_l	knee_r	knee_l	ankle_r	ankle_l	midasis	asis_r	asis_l	psis_r	psis_l	epicondLat_r	epicondLat_l	epicondMed_r	epicondMed_l	malleolusLat_r	malleolusLat_l	malleolusMedv_r	malleolusMedv_l	neck	subclavicle_r	subclavicle_l	sternalnotch	xyphoidprocess	thighwand_r	thighwand_l	upperleg1_r	upperleg1_l	upperleg2_r	upperleg2_l	shankwand_r	shankwand_l	lowerleg1_r	lowerleg1_l	toe_r	toe_l
 	 	X1	Y1	Z1	X2	Y2	Z2	X3	Y3	Z3	X4	Y4	Z4	X5	Y5	Z5	X6	Y6	Z6	X7	Y7	Z7	X8	Y8	Z8	X9	Y9	Z9	X10	Y10	Z10	X11	Y11	Z11	X12	Y12	Z12	X13	Y13	Z13	X14	Y14	Z14	X15	Y15	Z15	X16	Y16	Z16	X17	Y17	Z17	X18	Y18	Z18	X19	Y19	Z19	X20	Y20	Z20	X21	Y21	Z21	X22	Y22	Z22	X23	Y23	Z23	X24	Y24	Z24	X25	Y25	Z25	X26	Y26	Z26	X27	Y27	Z27	X28	Y28	Z28	X29	Y29	Z29	X30	Y30	Z30	X31	Y31	Z31	X32	Y32	Z32	X33	Y33	Z33	X34	Y34	Z34	X35	Y35	Z35	X36	Y36	Z36	X37	Y37	Z37

	28	0.35833	229.914	835.729	-212.514	236.543	822.875	-152.574	223.494	814.089	-268.987	235.918	450.089	-172.793	393.632	481.738	-310.725	142.343	63.864	-189.723	288.732	100.076	-355.813	287.918	899.688	-217.386	290.629	905.862	-117.732	285.207	893.514	-317.041	130.800	927.233	-191.318	129.787	921.703	-246.280	248.009	447.163	-119.218	403.178	493.208	-363.142	226.421	448.876	-215.769	394.424	460.358	-265.946	135.904	63.760	-151.766	290.445	104.124	-394.061	162.556	73.833	-219.482	313.146	103.333	-331.573	220.942	1339.383	-199.536	319.413	1254.877	-165.417	301.949	1255.718	-271.896	296.466	1267.811	-221.559	331.176	1096.016	-227.462	375.237	627.520	-172.543	441.963	682.531	-264.940	303.516	671.852	-116.661	367.035	699.014	-327.686	297.590	586.598	-119.878	404.876	620.933	-329.883	164.565	175.534	-76.021	283.683	232.537	-440.862	167.204	184.994	-117.301	298.255	229.323	-400.865	253.914	40.386	-149.907	405.173	64.016	-388.989
	29	0.36667	239.527	835.016	-212.879	246.435	822.075	-152.558	233.141	813.291	-268.944	239.871	449.362	-172.833	405.903	482.286	-309.664	142.636	63.864	-189.859	321.142	95.005	-354.250	297.884	898.738	-217.490	300.804	904.935	-117.785	294.965	892.541	-317.195	140.630	926.703	-191.600	139.562	921.155	-246.557	251.868	446.236	-119.248	415.675	493.827	-362.024	230.422	448.264	-215.524	405.065	460.665	-264.897	136.106	63.835	-151.917	322.725	99.062	-392.503	162.869	73.700	-219.564	345.543	99.654	-329.849	231.056	1338.469	-199.086	329.632	1253.760	-165.554	311.639	1254.721	-271.985	306.449	1266.825	-221.550	340.883	1094.941	-227.820	381.819	624.702	-172.417	451.966	683.283	-263.696	310.790	670.209	-116.716	377.114	699.201	-326.986	303.563	585.061	-119.784	415.237	621.169	-328.978	165.665	175.444	-76.070	309.230	226.987	-439.912	168.597	184.783	-117.257	324.079	224.537	-399.850	254.042	40.293	-149.891	439.233	63.540	-385.746
	30	0.37500	249.299	834.204	-213.345	256.442	821.196	-152.540	242.977	812.395	-268.906	243.864	448.631	-172.852	417.856	482.532	-308.578	142.966	63.855	-189.989	353.458	90.637	-352.455	307.983	897.714	-217.571	311.047	903.949	-117.812	304.919	891.478	-317.329	150.598	926.052	-191.938	149.478	920.490	-246.874	255.676	445.309	-119.238	427.859	494.125	-360.883	234.622	447.636	-215.321	414.818	460.604	-263.397	136.306	63.913	-152.069	354.867	94.690	-390.716	163.222	73.592	-219.642	377.773	96.702	-327.921	241.121	1337.452	-198.705	339.844	1252.618	-165.811	321.366	1253.764	-272.117	316.438	1265.776	-221.619	350.746	1093.899	-228.377	388.476	621.751	-172.060	461.852	683.564	-262.512	318.059	668.525	-116.599	387.089	698.966	-326.371	309.506	583.419	-119.542	425.231	620.856	-327.989	166.689	175.388	-76.112	334.616	221.749	-438.757	169.777	184.637	-117.229	349.867	219.994	-398.690	254.164	40.200	-149.850	472.933	63.614	-382.767
	31	0.38333	259.255	833.291	-213.848	266.544	820.231	-152.532	253.017	811.397	-268.888	247.875	447.908	-172.872	429.518	482.456	-307.487	143.321	63.858	-190.126	385.510	86.999	-350.452	318.200	896.621	-217.621	321.317	902.904	-117.804	315.083	890.338	-317.437	160.696	925.264	-192.342	159.548	919.681	-247.239	259.436	444.397	-119.215	439.771	494.089	-359.734	238.817	447.197	-215.267	425.124	460.049	-262.379	136.504	64.012	-152.235	386.691	91.025	-388.723	163.565	73.525	-219.736	409.793	94.524	-325.866	251.137	1336.330	-198.310	350.094	1251.376	-166.113	331.168	1252.767	-272.230	326.424	1264.686	-221.768	360.774	1092.808	-229.049	395.225	618.701	-171.552	471.644	683.366	-261.365	325.340	666.777	-116.292	396.982	698.167	-325.859	315.403	581.829	-119.204	435.317	620.292	-327.169	167.658	175.372	-76.170	359.714	216.859	-437.384	170.852	184.571	-117.242	375.325	215.859	-397.371	254.284	40.111	-149.796	506.115	64.244	-380.025
	32	0.39167	269.381	832.245	-214.277	276.735	819.169	-152.549	263.265	810.295	-268.909	251.895	447.200	-172.907	440.924	482.047	-306.414	143.686	63.899	-190.278	417.117	84.089	-348.266	328.527	895.461	-217.645	331.595	901.793	-117.768	325.460	889.129	-317.522	170.917	924.324	-192.815	169.779	918.706	-247.659	263.173	443.507	-119.203	451.454	493.709	-358.600	242.671	446.797	-214.416	435.732	459.008	-261.800	136.701	64.155	-152.418	418.004	88.062	-386.550	163.832	73.515	-219.871	441.353	93.143	-323.722	261.163	1335.140	-197.945	360.329	1250.163	-166.410	341.024	1251.647	-272.423	336.410	1263.563	-221.988	370.898	1091.666	-229.526	402.056	615.584	-170.996	481.393	682.716	-260.246	332.688	665.108	-115.894	406.954	696.923	-325.430	321.259	580.461	-118.527	445.591	619.398	-326.473	168.608	175.399	-76.263	384.386	212.348	-435.789	171.950	184.535	-117.316	400.346	212.281	-395.837	254.403	40.029	-149.739	538.605	65.420	-377.448
	33	0.40000	279.740	831.121	-214.570	287.017	817.996	-152.612	273.722	809.089	-268.988	255.939	446.502	-172.970	452.122	481.306	-305.384	144.049	64.001	-190.447	448.073	81.884	-345.918	338.961	894.230	-217.655	341.880	900.601	-117.717	336.042	887.860	-317.592	181.250	923.223	-193.355	180.170	917.551	-248.137	266.937	442.636	-119.220	462.952	492.987	-357.504	247.207	446.302	-214.075	445.360	457.487	-261.515	136.904	64.363	-152.617	448.604	85.766	-384.219	164.003	73.549	-220.085	472.105	92.498	-321.529	271.187	1333.901	-197.678	370.564	1249.028	-166.773	350.846	1250.530	-272.822	346.367	1262.377	-222.269	381.103	1090.572	-230.048	408.956	612.428	-170.493	491.170	681.676	-259.165	340.145	663.447	-115.680	417.156	695.416	-325.149	327.411	578.975	-118.152	455.765	618.000	-325.918	169.578	175.475	-76.399	408.500	208.227	-433.976	173.107	184.518	-117.463	424.757	209.227	-394.115	254.524	39.955	-149.685	570.218	67.114	-374.937
	34	0.40833	290.416	830.017	-214.761	297.395	816.698	-152.739	284.380	807.776	-269.146	260.047	445.803	-173.067	463.173	480.251	-304.408	144.409	64.184	-190.630	478.149	80.336	-343.423	349.498	892.922	-217.666	352.178	899.307	-117.676	346.818	886.537	-317.656	191.687	921.953	-193.961	190.718	916.207	-248.675	270.794	441.772	-119.278	474.313	491.937	-356.461	252.898	446.037	-215.969	454.711	455.688	-261.085	137.117	64.654	-152.830	478.281	84.079	-381.740	164.450	73.559	-220.231	501.907	92.409	-319.314	281.219	1332.537	-197.443	380.768	1247.833	-167.260	360.569	1249.534	-273.305	356.201	1261.061	-222.619	391.283	1089.532	-230.968	415.925	609.257	-170.122	501.063	680.332	-258.153	347.728	661.685	-115.733	427.507	693.634	-325.002	333.920	577.079	-118.741	465.988	616.208	-325.378	170.604	175.607	-76.581	431.946	204.491	-431.958	174.329	184.552	-117.707	448.408	206.602	-392.167	254.651	39.892	-149.638	600.762	69.285	-372.391
	35	0.41667	301.384	828.928	-214.930	307.877	815.264	-152.946	295.234	806.362	-269.395	264.277	445.086	-173.201	474.149	478.928	-303.485	144.772	64.460	-190.823	507.109	79.364	-340.778	360.142	891.532	-217.690	362.503	897.898	-117.662	357.781	885.167	-317.719	202.220	920.515	-194.637	201.414	914.682	-249.276	274.817	440.900	-119.383	485.586	490.590	-355.479	258.127	446.013	-217.803	464.633	453.753	-260.294	137.351	65.041	-153.050	506.829	82.919	-379.113	165.170	73.595	-220.306	530.618	92.815	-316.991	291.269	1331.030	-197.258	390.939	1246.571	-167.808	370.386	1248.420	-273.680	365.957	1259.642	-223.042	401.557	1088.405	-231.787	422.976	606.095	-169.921	511.162	678.782	-257.256	355.447	659.918	-115.934	438.056	691.566	-324.755	340.358	575.287	-119.423	476.473	614.241	-324.693	171.718	175.803	-76.802	454.641	201.119	-429.762	175.556	184.652	-118.008	471.570	204.292	-389.882	254.786	39.840	-149.595	630.050	71.868	-369.725
	36	0.42500	312.490	827.711	-215.104	318.469	813.696	-153.242	306.284	804.854	-269.745	268.702	444.336	-173.374	485.120	477.400	-302.603	145.153	64.840	-191.018	534.723	78.867	-337.977	370.899	890.063	-217.738	372.869	896.369	-117.687	368.928	883.757	-317.788	212.844	918.917	-195.389	212.251	912.994	-249.948	279.078	440.003	-119.535	496.816	489.001	-354.554	263.036	445.872	-218.936	475.314	451.738	-259.429	137.616	65.539	-153.270	534.060	82.188	-376.328	165.527	73.718	-220.560	557.971	93.591	-314.455	301.310	1329.434	-197.176	400.170	1244.514	-168.346	380.370	1247.032	-273.964	375.655	1258.129	-223.531	410.563	1086.659	-232.957	430.120	602.955	-169.887	521.545	677.119	-256.528	363.348	657.998	-116.252	448.878	689.329	-324.386	346.913	573.627	-119.964	487.295	612.250	-323.982	172.944	176.078	-77.053	476.526	198.079	-427.420	176.813	184.806	-118.316	494.173	202.172	-387.309	254.931	39.801	-149.550	657.905	74.767	-366.878
	37	0.43333	323.662	826.305	-215.276	329.171	812.007	-153.632	317.522	803.267	-270.197	273.406	443.541	-173.590	496.148	475.751	-301.749	145.569	65.335	-191.204	560.789	78.720	-335.008	381.772	888.521	-217.813	383.283	894.725	-117.757	380.260	882.317	-317.868	223.558	917.176	-196.228	223.220	911.175	-250.703	283.641	439.075	-119.736	508.042	487.240	-353.679	268.389	445.348	-219.916	486.138	449.723	-258.692	137.926	66.161	-153.480	559.809	81.774	-373.374	165.765	73.888	-220.885	583.740	94.615	-311.696	311.353	1327.803	-197.178	407.298	1241.003	-168.855	390.287	1245.587	-274.371	385.372	1256.556	-224.069	416.484	1084.046	-235.572	437.404	599.859	-169.978	532.265	675.417	-256.011	371.457	655.994	-116.836	459.838	687.168	-324.082	353.779	571.807	-120.624	498.230	610.177	-323.461	174.303	176.452	-77.323	497.553	195.340	-424.963	178.225	185.024	-118.609	515.599	200.242	-384.760	255.089	39.778	-149.496	684.175	77.846	-363.816
	38	0.44167	334.996	824.852	-215.505	339.970	810.218	-154.117	328.934	801.622	-270.753	278.466	442.699	-173.854	507.275	474.061	-300.905	146.037	65.960	-191.368	585.148	78.790	-331.866	392.758	886.919	-217.920	393.746	892.982	-117.877	391.770	880.856	-317.962	234.363	915.324	-197.167	234.319	909.264	-251.560	288.561	438.117	-119.983	519.296	485.386	-352.843	273.728	444.463	-220.237	497.373	447.849	-258.101	138.290	66.931	-153.668	583.941	81.559	-370.248	166.356	74.186	-221.094	607.735	95.833	-308.717	321.413	1326.152	-197.249	417.423	1239.387	-169.713	400.045	1244.214	-274.996	395.150	1254.953	-224.649	426.455	1082.595	-236.770	444.881	596.829	-170.130	543.335	673.728	-255.721	379.812	653.886	-117.722	470.948	685.147	-323.916	360.822	569.968	-121.218	509.369	608.207	-323.158	175.814	176.951	-77.596	517.669	192.869	-422.415	179.826	185.311	-118.885	535.776	198.629	-382.342	255.261	39.771	-149.424	708.738	80.929	-360.524
	39	0.45000	346.430	823.328	-215.850	350.853	808.363	-154.692	340.502	799.946	-271.404	283.952	441.815	-174.165	518.528	472.406	-300.058	146.573	66.740	-191.494	607.696	78.940	-328.558	403.854	885.276	-218.060	404.256	891.168	-118.048	403.453	879.385	-318.072	245.261	913.401	-198.217	245.551	907.310	-252.541	293.880	437.139	-120.271	530.607	483.518	-352.028	279.073	443.734	-220.507	510.380	446.536	-256.669	138.721	67.875	-153.820	606.360	81.419	-366.955	167.040	74.617	-221.244	629.960	97.105	-305.580	331.487	1324.522	-197.404	427.667	1237.827	-170.495	409.815	1242.797	-275.675	405.054	1253.380	-225.273	436.543	1081.145	-237.822	452.619	593.888	-170.268	554.734	672.087	-255.644	388.417	651.616	-118.462	482.410	683.187	-323.851	368.106	568.164	-121.738	521.289	606.689	-322.613	177.498	177.607	-77.860	536.806	190.631	-419.785	181.694	185.702	-119.159	554.956	197.269	-379.873	255.447	39.782	-149.324	731.504	83.807	-357.002
